<svg width="12" height="10" viewBox="0 0 12 10" fill="none" xmlns="http://www.w3.org/2000/svg">
<path fill-rule="evenodd" clip-rule="evenodd" d="M6.55566 9.77808C6.64941 9.87172 6.77649 9.92431 6.90899 9.92431C7.04149 9.92431 7.16858 9.87172 7.26233 9.77808L11.687 5.35342C11.7806 5.25967 11.8332 5.13259 11.8332 5.00008C11.8332 4.86758 11.7806 4.7405 11.687 4.64675L7.26233 0.222085C7.16754 0.133765 7.04218 0.085683 6.91264 0.0879685C6.78311 0.090254 6.65952 0.142729 6.56791 0.234337C6.4763 0.325946 6.42383 0.449536 6.42154 0.57907C6.41926 0.708604 6.46734 0.833969 6.55566 0.928752L10.1263 4.50008H0.666992C0.534384 4.50008 0.407207 4.55276 0.313439 4.64653C0.219671 4.7403 0.166992 4.86748 0.166992 5.00008C0.166992 5.13269 0.219671 5.25987 0.313439 5.35364C0.407207 5.44741 0.534384 5.50008 0.666992 5.50008H10.127L6.55566 9.07142C6.46203 9.16517 6.40943 9.29225 6.40943 9.42475C6.40943 9.55725 6.46203 9.68433 6.55566 9.77808Z" fill="#1E222E"/>
</svg>
