<svg width="12" height="10" viewBox="0 0 12 10" fill="none" xmlns="http://www.w3.org/2000/svg">
<path fill-rule="evenodd" clip-rule="evenodd" d="M5.44434 0.221915C5.35059 0.128282 5.22351 0.0756893 5.09101 0.0756893C4.95851 0.0756893 4.83142 0.128282 4.73767 0.221915L0.313007 4.64658C0.219374 4.74033 0.16678 4.86741 0.16678 4.99992C0.16678 5.13242 0.219374 5.2595 0.313007 5.35325L4.73767 9.77791C4.83246 9.86623 4.95782 9.91432 5.08736 9.91203C5.21689 9.90975 5.34048 9.85727 5.43209 9.76566C5.5237 9.67405 5.57617 9.55046 5.57846 9.42093C5.58074 9.2914 5.53266 9.16603 5.44434 9.07125L1.87367 5.49992L11.333 5.49992C11.4656 5.49992 11.5928 5.44724 11.6866 5.35347C11.7803 5.2597 11.833 5.13252 11.833 4.99992C11.833 4.86731 11.7803 4.74013 11.6866 4.64636C11.5928 4.55259 11.4656 4.49992 11.333 4.49992L1.87301 4.49992L5.44434 0.928582C5.53797 0.834831 5.59057 0.707749 5.59057 0.57525C5.59057 0.442749 5.53797 0.315666 5.44434 0.221915Z" fill="#AEAEAE"/>
</svg>
