<svg width="14" height="14" viewBox="0 0 14 14" fill="none" xmlns="http://www.w3.org/2000/svg">
<path fill-rule="evenodd" clip-rule="evenodd" d="M13.7179 0.283061C13.8584 0.423686 13.9373 0.61431 13.9373 0.813061C13.9373 1.01181 13.8584 1.20244 13.7179 1.34306L8.05993 7.00006L13.7169 12.6571C13.8535 12.7986 13.929 12.9881 13.9272 13.1847C13.9254 13.3814 13.8464 13.5694 13.7073 13.7084C13.5682 13.8474 13.38 13.9262 13.1834 13.9278C12.9867 13.9294 12.7973 13.8537 12.6559 13.7171L6.99993 8.06206L1.34293 13.7191C1.27371 13.7907 1.19092 13.8478 1.0994 13.887C1.00788 13.9263 0.909457 13.9469 0.809872 13.9477C0.710288 13.9486 0.611537 13.9295 0.519383 13.8918C0.427229 13.854 0.343517 13.7983 0.273131 13.7278C0.202745 13.6574 0.147095 13.5736 0.109427 13.4814C0.0717602 13.3893 0.0528304 13.2905 0.0537424 13.1909C0.0546544 13.0913 0.0753901 12.9929 0.114739 12.9014C0.154089 12.8099 0.211263 12.7272 0.282928 12.6581L5.93793 7.00006L0.281928 1.34306C0.145375 1.20154 0.0698667 1.01206 0.0716677 0.815409C0.0734686 0.618762 0.152434 0.430689 0.291556 0.291698C0.430679 0.152706 0.618826 0.0739183 0.815475 0.0723028C1.01212 0.0706873 1.20154 0.146374 1.34293 0.283061L6.99993 5.93906L12.6569 0.283061C12.7976 0.14261 12.9882 0.0637207 13.1869 0.0637207C13.3857 0.0637207 13.5763 0.14261 13.7169 0.283061H13.7179Z" fill="#A3A7BC"/>
</svg>
