<svg width="21" height="21" viewBox="0 0 21 21" fill="none" xmlns="http://www.w3.org/2000/svg">
<path fill-rule="evenodd" clip-rule="evenodd" d="M19.52 17.947C19.17 19.025 18.996 19.564 18.537 20.053C18.302 20.303 17.938 20.568 17.627 20.714C17.02 21 16.357 21 15.033 21H2.2C1.545 21 1.218 21 0.977 20.853C0.842512 20.7705 0.729433 20.6575 0.647 20.523C0.5 20.283 0.5 19.955 0.5 19.3V10.054C0.5 9.39897 0.5 9.07197 0.647 8.83097C0.729433 8.69649 0.842512 8.58341 0.977 8.50097C1.218 8.35397 1.545 8.35397 2.2 8.35397H4.5C7.537 8.35397 8.268 3.82697 8.444 1.64697C8.507 0.862974 8.741 0.321974 9.626 0.281974C10.481 0.243974 11.651 0.475974 12.5 1.74997C13.848 3.77197 13.52 5.40697 13.042 7.79297C13.013 7.93497 13.059 7.99997 13.207 7.99997H15.521C17.429 7.99997 18.383 7.99997 19.118 8.46497C19.5239 8.73044 19.8641 9.0847 20.113 9.50097C20.547 10.254 20.513 11.1 20.443 12.791C20.3812 14.5447 20.0704 16.2807 19.52 17.947ZM11.956 4.67697C11.977 5.43297 11.818 6.26697 11.57 7.50397C11.515 7.74666 11.5161 7.9987 11.5732 8.24089C11.6304 8.48308 11.742 8.70904 11.8997 8.90154C12.0574 9.09405 12.2569 9.24801 12.4831 9.35172C12.7093 9.45543 12.9562 9.50613 13.205 9.49997C13.977 9.49397 14.749 9.49997 15.521 9.49997C16.506 9.49997 17.131 9.50197 17.607 9.54997C18.051 9.59597 18.218 9.66997 18.316 9.73197C18.495 9.84597 18.707 10.067 18.813 10.251C18.981 10.542 19.02 10.868 18.944 12.731C18.8881 14.348 18.6019 15.9488 18.094 17.485C17.715 18.651 17.628 18.83 17.444 19.026C17.31 19.1592 17.1562 19.2708 16.988 19.357C16.753 19.467 16.488 19.5 15.033 19.5C11.689 19.5 8.344 19.508 5 19.505V9.82697C7.135 9.59097 8.318 7.86297 8.93 6.39397C9.603 4.77697 9.845 2.92197 9.938 1.78397C11.302 1.87397 11.923 3.49097 11.956 4.67697ZM4 9.85297V19.504C3.333 19.504 2.667 19.502 2 19.5C1.99 16.285 1.99 13.069 2 9.85397C2.667 9.85197 3.333 9.85297 4 9.85397V9.85297Z" fill="white"/>
</svg>
