<svg width="18" height="18" viewBox="0 0 18 18" fill="none" xmlns="http://www.w3.org/2000/svg">
<path fill-rule="evenodd" clip-rule="evenodd" d="M11.5547 12.9692C10.0972 14.0687 8.27683 14.5744 6.46103 14.3843C4.64523 14.1941 2.96915 13.3223 1.77101 11.9447C0.572861 10.5672 -0.0581383 8.78637 0.00534051 6.96175C0.0688193 5.13713 0.82205 3.40451 2.11303 2.11352C3.40402 0.822538 5.13664 0.0693076 6.96126 0.00582879C8.78588 -0.05765 10.5667 0.573349 11.9442 1.77149C13.3218 2.96964 14.1936 4.64572 14.3838 6.46152C14.5739 8.27732 14.0682 10.0976 12.9687 11.5552L17.7047 16.2912C17.8923 16.4787 17.9978 16.733 17.9979 16.9983C17.998 17.2636 17.8927 17.518 17.7052 17.7057C17.5177 17.8933 17.2633 17.9988 16.998 17.9989C16.7328 17.999 16.4783 17.8937 16.2907 17.7062L11.5547 12.9692ZM12.9227 7.21116C12.9227 7.96121 12.7749 8.70391 12.4879 9.39686C12.2009 10.0898 11.7802 10.7194 11.2498 11.2498C10.7195 11.7802 10.0898 12.2009 9.39687 12.4879C8.70392 12.7749 7.96122 12.9227 7.21117 12.9227C6.46113 12.9227 5.71843 12.7749 5.02548 12.4879C4.33253 12.2009 3.7029 11.7802 3.17253 11.2498C2.64217 10.7194 2.22147 10.0898 1.93444 9.39686C1.64741 8.70391 1.49967 7.96121 1.49967 7.21116C1.49967 5.69638 2.10142 4.24364 3.17253 3.17252C4.24365 2.10141 5.69639 1.49966 7.21117 1.49966C8.72596 1.49966 10.1787 2.10141 11.2498 3.17252C12.3209 4.24364 12.9227 5.69638 12.9227 7.21116Z" fill="#A3A7BC"/>
</svg>
