<svg width="152" height="32" viewBox="0 0 152 32" fill="none" xmlns="http://www.w3.org/2000/svg">
<g clip-path="url(#clip0_6_1402)">
<path fill-rule="evenodd" clip-rule="evenodd" d="M0.554419 16C0.554419 7.48804 7.46333 0.548158 15.9502 0.548158C24.4477 0.548158 31.3567 7.4777 31.3567 16C31.3567 24.5223 24.4477 31.4518 15.9502 31.4518C7.46333 31.4518 0.554419 24.5223 0.554419 16ZM0 16C0 24.8222 7.15414 32 15.9502 32C24.7463 32 31.9004 24.8222 31.9004 16C31.9111 7.17776 24.7463 0 15.9502 0C7.15414 0 0 7.17776 0 16Z" fill="#4F6AE8"/>
<path fill-rule="evenodd" clip-rule="evenodd" d="M26.1003 14.3767C25.9831 14.4801 25.8551 14.5835 25.7059 14.6869C24.8209 15.3695 23.4349 15.9074 21.5051 16.4245C17.4962 17.5001 14.5962 17.6656 11.2803 18.4723C10.6406 18.6275 9.96889 18.8447 9.33983 19.1032C9.96889 19.4135 10.6299 19.7031 11.3123 19.9617C12.6557 19.579 13.2954 19.4032 15.2465 19.0722C15.9822 18.9481 18.2638 18.5447 19.9271 18.1931C22.9018 17.5622 27.2625 16.1866 26.1003 14.3767ZM24.1812 10.6223C23.5521 10.3327 22.7525 10.0534 21.9102 9.82591C21.537 10.1258 21.0893 10.3948 20.4709 10.6326C21.5157 10.8188 22.3154 11.1084 23.1896 11.367C23.3602 11.4497 24.0746 10.7774 24.1812 10.6223ZM9.59572 14.6145C13.4873 13.4665 17.5708 13.1149 21.7076 12.0082C20.087 11.5738 19.2021 11.3876 17.4962 11.5841C15.012 11.8737 12.2825 12.4219 9.94756 13.1149C9.03064 13.3838 4.21146 14.7593 5.59751 16.6727C5.59751 16.7037 6.42914 15.5454 9.59572 14.6145ZM6.90892 21.2028C6.89826 21.5648 7.12216 21.875 7.59128 22.2681C7.65525 22.0715 7.74055 21.9371 7.87915 21.7509C7.54864 21.5751 7.21812 21.3889 6.90892 21.2028ZM8.73211 21.0166C9.01998 20.8408 9.37182 20.665 9.77697 20.5098C9.22255 20.2823 8.65747 20.0341 8.08173 19.7651C7.81518 19.9306 7.59128 20.0961 7.39937 20.2823C7.84717 20.5305 8.28431 20.7787 8.73211 21.0166ZM23.6908 12.7218C22.9018 13.0838 21.7823 13.4665 20.1617 13.8699C18.8396 14.2008 15.6197 14.6662 12.1546 15.4213C11.0564 15.6591 8.09239 16.3624 6.63171 17.6035C7.03686 17.9345 7.29275 18.0172 7.74055 18.2655C8.34828 17.8828 9.15858 17.5105 10.3847 17.1795C12.5064 16.6107 14.095 16.3624 16.0035 16.0625C17.9013 15.7626 21.4624 15.0076 23.4455 14.3043C24.0852 14.0664 24.6823 13.7768 25.1301 13.4251C25.0022 13.2803 23.7334 12.6701 23.6908 12.7218ZM24.8422 12.0185C25.2261 12.215 25.5779 12.3495 25.9191 12.5874C26.1643 12.122 26.015 11.822 25.5033 11.3876C25.3114 11.6255 25.0768 11.8324 24.8422 12.0185ZM6.71701 19.0722C6.37583 18.8757 6.1306 18.7412 5.84273 18.5344C5.6828 18.8757 5.98134 19.2584 6.29053 19.4342C6.42914 19.2997 6.5784 19.186 6.71701 19.0722ZM23.2856 8.28486C23.211 8.55377 22.9338 8.8537 22.7312 9.0709C23.3176 9.22604 23.904 9.44323 24.4691 9.65008C24.4051 9.13295 23.7974 8.62617 23.2856 8.28486ZM4.96846 11.6152C9.0413 8.93644 13.5513 7.37471 21.1959 8.69856C21.6223 8.45034 21.8569 8.22281 21.9635 7.71602C20.055 7.02306 17.9866 6.78518 15.3105 6.82655C12.9009 6.88861 8.57218 7.78842 6.26921 9.16398L6.97289 8.28486C8.5935 7.33334 12.805 6.07154 15.9609 6.00949C18.1892 5.96812 19.3407 6.09223 21.9848 6.80587C21.7609 6.3508 21.2065 6.12326 20.4069 5.76127C17.848 4.6029 13.0608 4.49947 9.13726 6.22668C9.63837 5.90606 10.1182 5.59579 10.7579 5.30619C12.048 4.71666 14.1697 4.13748 16.8138 4.17885C18.9249 4.20988 21.4411 4.95454 22.9764 6.48525C23.2323 6.78518 23.3816 7.1058 23.4455 7.36437C24.661 7.98493 25.3647 8.56411 25.7698 9.24672C25.9298 9.58803 26.0044 9.98105 25.9298 10.4051C26.4309 10.7154 26.6761 10.9636 26.9213 11.2946C27.1026 11.5738 27.2412 11.8944 27.2731 12.184C27.3158 12.5667 27.3584 13.0011 26.964 13.4975C27.3904 13.7044 27.7103 14.2836 27.7636 14.5421C27.9555 15.4626 27.3691 16.3521 26.5801 17.0554C25.6845 17.8414 23.7121 18.7723 22.1021 19.186C18.9036 19.9927 16.0888 20.334 13.8392 20.7477C14.8414 20.9856 16.2061 21.3165 18.4451 21.3165C23.211 21.3165 27.4224 19.0515 27.4224 19.0515C27.4224 19.0515 27.3265 19.3514 27.2305 19.61C24.2025 21.451 19.3833 22.2267 17.3363 22.1336C15.2465 22.0405 13.4873 21.7302 11.7707 21.1924C11.2377 21.3372 10.7259 21.5027 10.2248 21.7199C12.8476 22.9093 14.8201 23.1782 17.0591 23.3437C19.3407 23.5092 23.115 22.961 26.3136 21.8026C26.1643 21.9474 26.0897 22.175 25.9404 22.3198C24.3091 23.1782 20.8547 24.047 19.1168 24.109C17.3896 24.1814 15.2892 24.1194 13.4553 23.7677C11.8774 23.4678 10.5979 22.961 9.24388 22.3715C8.99865 22.5473 8.87071 22.7852 8.82806 23.0437C14.0737 25.7949 18.9995 25.8569 24.597 24.109L24.0852 24.6055C17.9227 27.1084 13.1035 26.1362 9.38248 24.3366C9.2652 24.2849 9.11593 24.2228 9.00932 24.1504C9.3505 24.7503 12.1972 26.8395 15.3851 27.098C17.5815 27.2739 20.2576 26.9015 21.8462 26.2603L20.9187 26.7464C20.151 27.1291 18.1146 27.9875 15.2572 27.8013C11.4616 27.5428 9.31851 25.8569 8.35894 24.9778C7.91114 24.5641 7.70856 24.0884 7.56996 23.4988C6.70635 23.0437 6.17325 22.5783 5.72545 21.8854C5.4589 21.4717 5.51221 21.0166 5.57618 20.6236C5.59751 20.4995 5.62949 20.3857 5.67214 20.2719C5.25633 19.972 4.84051 19.6514 4.65926 19.3308C4.28609 18.6481 4.50999 18.069 4.77654 17.6139C4.55264 17.3553 4.3394 17.0968 4.24345 16.8382C4.14749 16.5486 4.12617 16.2487 4.15815 15.9177C4.23278 15.3489 4.53132 14.8214 4.92581 14.3663C5.75744 13.4044 7.05819 12.6598 9.29719 11.9151C11.4829 11.1911 12.3678 11.0774 14.0204 10.6947C15.9502 10.25 18.2532 10.1052 20.183 9.43289C14.7987 8.49171 9.21189 9.35015 4.65926 12.4943L4.96846 11.6152Z" fill="#4F6AE8"/>
<path d="M51.9981 13.2174L52.6059 17.4889H51.3797L51.9981 13.2174ZM47.179 22.9912H50.4735L50.868 20.571H53.1283L53.5228 22.9912H56.8067L54.0346 8.9873H49.9617L47.179 22.9912Z" fill="#4F6AE8"/>
<path d="M59.9199 14.4072C60.4423 14.4072 61.4126 14.0659 61.4126 13.0317C61.4126 11.8113 60.2931 11.7389 59.9839 11.7389C59.6107 11.7389 58.907 11.7906 58.2033 12.1319L58.1607 9.10149C59.2589 8.8119 60.0585 8.7395 60.9861 8.7395C63.6302 8.7395 64.8244 10.6012 64.8244 12.4111C64.8244 14.1797 63.8008 15.2553 62.8199 15.669V15.8035C63.7582 16.1034 65.0376 17.0239 65.0376 19.1648C65.0376 21.8022 63.1931 23.2605 60.8475 23.2605C59.5894 23.2605 58.7684 23.0743 57.7769 22.5365L57.8302 19.6303C58.7364 20.0233 59.3548 20.0543 59.9839 20.0543C61.0181 20.0543 61.4446 19.289 61.4446 18.7201C61.4446 17.9341 60.9434 17.4066 59.8453 17.4066H58.5339V14.4072H59.9199Z" fill="#4F6AE8"/>
<path d="M66.5623 8.9873H75.401V22.9912H72.1598V12.3486H69.8035V22.9912H66.5623V8.9873Z" fill="#4F6AE8"/>
<path d="M80.4973 12.0694H81.265C82.0007 12.0694 82.4591 12.5142 82.4591 13.6725C82.4591 15.1929 81.6808 15.2963 81.265 15.2963H80.4973V12.0694ZM77.2561 22.9912H80.4973V18.3681H81.5848C84.7941 18.3681 85.7856 15.4825 85.7856 13.6415C85.7856 11.8315 84.6555 8.97699 81.5848 8.98733H77.2561V22.9912Z" fill="#4F6AE8"/>
<path d="M91.7776 19.7754C90.6368 19.7754 90.0504 18.4412 90.0504 15.9694C90.0504 13.4975 90.6368 12.1633 91.7776 12.1633C92.9184 12.1633 93.5155 13.4975 93.5155 15.9694C93.5155 18.4412 92.9184 19.7754 91.7776 19.7754ZM91.7776 23.1575C95.6159 23.1575 96.9166 19.5686 96.9166 15.9694C96.9166 12.3805 95.6159 8.78125 91.7776 8.78125C87.9393 8.78125 86.6385 12.3805 86.6385 15.9694C86.6492 19.5686 87.9393 23.1575 91.7776 23.1575Z" fill="#4F6AE8"/>
<path d="M114.2 20.1883V17.0028H114.669C115.053 17.0028 116.076 17.0235 116.076 18.4611C116.076 19.9401 115.053 20.1883 114.669 20.1883H114.2ZM111.033 22.9912H114.903C115.735 22.9912 119.243 22.6395 119.253 18.3991C119.253 14.8205 116.535 14.2 114.786 14.2H114.21V12.3486H118.496V8.9873H111.033V22.9912Z" fill="#4F6AE8"/>
<path d="M130.907 8.9873H134.084V14.0242H136.344V8.9873H139.522V22.9912H136.344V17.3855H134.084V22.9912H130.907V8.9873Z" fill="#4F6AE8"/>
<path d="M141.643 8.9873H144.821L144.81 14.0242H145.503L147.315 8.9873H150.77L148.296 15.6273L151.111 22.9912H147.379L145.567 17.3545H144.81L144.821 22.9912H141.643V8.9873Z" fill="#4F6AE8"/>
<path d="M40.9097 8.9873H47.552V12.4728H44.2042V22.9912H40.9097V8.9873Z" fill="#4F6AE8"/>
<path d="M98.4733 8.9873H101.224L103.655 12.2866L106.097 8.9873H108.847V22.9912H105.606V14.4482L103.655 16.8994L101.714 14.4482V22.9912H98.4733V8.9873Z" fill="#4F6AE8"/>
<path d="M124.702 13.2388L125.309 17.5103H124.083L124.702 13.2388ZM119.882 23.0125H123.166L123.561 20.5924H125.821L126.216 23.0125H129.499L126.717 9.00867H122.644L119.882 23.0125Z" fill="#4F6AE8"/>
</g>
<defs>
<clipPath id="clip0_6_1402">
<rect width="151.111" height="32" fill="white"/>
</clipPath>
</defs>
</svg>
