<svg width="170" height="36" viewBox="0 0 170 36" fill="none" xmlns="http://www.w3.org/2000/svg">
<g clip-path="url(#clip0_6_1571)">
<path fill-rule="evenodd" clip-rule="evenodd" d="M0.623721 18C0.623721 8.42405 8.39625 0.616677 17.944 0.616677C27.5037 0.616677 35.2762 8.41241 35.2762 18C35.2762 27.5876 27.5037 35.3833 17.944 35.3833C8.39625 35.3833 0.623721 27.5876 0.623721 18ZM0 18C0 27.925 8.0484 36 17.944 36C27.8396 36 35.888 27.925 35.888 18C35.8999 8.07498 27.8396 0 17.944 0C8.0484 0 0 8.07498 0 18Z" fill="#4F6AE8"/>
<path fill-rule="evenodd" clip-rule="evenodd" d="M29.3629 16.1732C29.2309 16.2896 29.087 16.406 28.9191 16.5223C27.9235 17.2902 26.3642 17.8953 24.1932 18.4771C19.6832 19.6871 16.4207 19.8733 12.6903 20.7809C11.9707 20.9554 11.215 21.1997 10.5073 21.4906C11.215 21.8397 11.9587 22.1655 12.7263 22.4564C14.2376 22.0259 14.9573 21.8281 17.1523 21.4557C17.98 21.3161 20.5468 20.8623 22.418 20.4667C25.7645 19.757 30.6703 18.2094 29.3629 16.1732ZM27.2038 11.9496C26.4962 11.6238 25.5966 11.3096 24.649 11.0537C24.2292 11.3911 23.7254 11.6936 23.0297 11.9612C24.2052 12.1707 25.1048 12.4965 26.0883 12.7873C26.2803 12.8804 27.0839 12.1241 27.2038 11.9496ZM10.7952 16.4409C15.1732 15.1493 19.7672 14.7537 24.4211 13.5087C22.5979 13.02 21.6024 12.8106 19.6832 13.0317C16.8885 13.3575 13.8178 13.9742 11.191 14.7537C10.1595 15.0562 4.73789 16.6038 6.2972 18.7563C6.2972 18.7912 7.23278 17.488 10.7952 16.4409ZM7.77254 23.8526C7.76054 24.2599 8.01243 24.6089 8.54019 25.0511C8.61216 24.83 8.70812 24.6787 8.86405 24.4693C8.49222 24.2715 8.12038 24.0621 7.77254 23.8526ZM9.82362 23.6432C10.1475 23.4454 10.5433 23.2476 10.9991 23.0731C10.3754 22.8171 9.73966 22.5378 9.09195 22.2353C8.79208 22.4215 8.54019 22.6076 8.32429 22.8171C8.82807 23.0963 9.31984 23.3756 9.82362 23.6432ZM26.6521 14.3116C25.7645 14.7188 24.5051 15.1493 22.6819 15.6031C21.1945 15.9754 17.5722 16.499 13.6739 17.3484C12.4385 17.616 9.10394 18.4072 7.46068 19.8035C7.91647 20.1758 8.20434 20.2689 8.70812 20.5482C9.39181 20.1177 10.3034 19.6988 11.6828 19.3264C14.0697 18.6865 15.8569 18.4072 18.004 18.0698C20.139 17.7324 24.1452 16.883 26.3762 16.0918C27.0959 15.8242 27.7676 15.4984 28.2714 15.1028C28.1274 14.9399 26.7001 14.2534 26.6521 14.3116ZM27.9475 13.5204C28.3793 13.7414 28.7751 13.8927 29.159 14.1603C29.4349 13.6367 29.2669 13.2993 28.6912 12.8106C28.4753 13.0782 28.2114 13.3109 27.9475 13.5204ZM7.55663 21.4557C7.17281 21.2347 6.89693 21.0834 6.57307 20.8507C6.39315 21.2347 6.729 21.6652 7.07685 21.863C7.23278 21.7117 7.4007 21.5837 7.55663 21.4557ZM26.1963 9.31998C26.1123 9.6225 25.8005 9.95993 25.5726 10.2043C26.2323 10.3788 26.892 10.6231 27.5277 10.8559C27.4557 10.2741 26.772 9.70395 26.1963 9.31998ZM5.58951 13.0666C10.1715 10.053 15.2452 8.29606 23.8454 9.7854C24.3251 9.50615 24.589 9.25017 24.709 8.68003C22.5619 7.90046 20.235 7.63284 17.2243 7.67939C14.5135 7.7492 9.6437 8.76148 7.05286 10.309L7.8445 9.31998C9.66769 8.24952 14.4056 6.83 17.956 6.76019C20.4629 6.71365 21.7583 6.85327 24.733 7.65612C24.4811 7.14416 23.8573 6.88818 22.9577 6.48094C20.079 5.17777 14.6934 5.06142 10.2794 7.00453C10.8432 6.64383 11.3829 6.29477 12.1026 5.96898C13.554 5.30576 15.9409 4.65418 18.9156 4.70072C21.2905 4.73562 24.1212 5.57337 25.8485 7.29542C26.1363 7.63284 26.3043 7.99354 26.3762 8.28443C27.7436 8.98255 28.5353 9.63414 28.9911 10.4021C29.171 10.786 29.2549 11.2282 29.171 11.7052C29.7347 12.0543 30.0106 12.3336 30.2865 12.7059C30.4904 13.02 30.6463 13.3807 30.6823 13.7065C30.7303 14.137 30.7783 14.6257 30.3345 15.1842C30.8142 15.4169 31.1741 16.0685 31.2341 16.3594C31.45 17.395 30.7902 18.3956 29.9026 19.1868C28.8951 20.0711 26.6761 21.1183 24.8649 21.5837C21.2665 22.4913 18.0999 22.8752 15.5691 23.3407C16.6965 23.6083 18.2319 23.9806 20.7507 23.9806C26.1123 23.9806 30.8502 21.4325 30.8502 21.4325C30.8502 21.4325 30.7423 21.7699 30.6343 22.0608C27.2278 24.1319 21.8063 25.0045 19.5033 24.8998C17.1523 24.7951 15.1732 24.446 13.2421 23.841C12.6424 24.0039 12.0666 24.1901 11.5029 24.4344C14.4536 25.7725 16.6726 26.075 19.1914 26.2612C21.7583 26.4473 26.0044 25.8306 29.6028 24.5275C29.4349 24.6904 29.3509 24.9464 29.183 25.1093C27.3478 26.075 23.4615 27.0524 21.5064 27.1222C19.5633 27.2036 17.2003 27.1338 15.1372 26.7382C13.362 26.4008 11.9227 25.8306 10.3994 25.1674C10.1235 25.3652 9.97955 25.6328 9.93157 25.9237C15.8329 29.0188 21.3745 29.0886 27.6716 27.1222L27.0959 27.6807C20.163 30.4965 14.7414 29.4027 10.5553 27.3782C10.4234 27.32 10.2554 27.2502 10.1355 27.1687C10.5193 27.8436 13.7219 30.1939 17.3083 30.4848C19.7792 30.6826 22.7898 30.2637 24.577 29.5423L23.5335 30.0892C22.6699 30.5197 20.3789 31.4855 17.1643 31.276C12.8942 30.9851 10.4833 29.0886 9.40381 28.0996C8.90003 27.6341 8.67213 27.0989 8.5162 26.4357C7.54464 25.9237 6.94491 25.4001 6.44113 24.6206C6.14127 24.1551 6.20124 23.6432 6.27321 23.201C6.2972 23.0614 6.33318 22.9334 6.38116 22.8054C5.91337 22.468 5.44558 22.1073 5.24167 21.7466C4.82186 20.9787 5.07374 20.3271 5.37361 19.8151C5.12172 19.5242 4.88183 19.2334 4.77388 18.9425C4.66593 18.6167 4.64194 18.2793 4.67792 17.9069C4.76188 17.267 5.09773 16.6736 5.54153 16.1616C6.47712 15.0795 7.94046 14.2418 10.4593 13.404C12.9182 12.5895 13.9138 12.4615 15.773 12.031C17.944 11.5307 20.5348 11.3678 22.7059 10.6115C16.6486 9.55269 10.3634 10.5184 5.24167 14.0556L5.58951 13.0666Z" fill="#4F6AE8"/>
<path d="M58.4978 14.8701L59.1815 19.6755H57.8021L58.4978 14.8701ZM53.0763 25.8656H56.7826L57.2264 23.1429H59.7693L60.2131 25.8656H63.9074L60.7888 10.1112H56.2069L53.0763 25.8656Z" fill="#4F6AE8"/>
<path d="M67.4099 16.2081C67.9976 16.2081 69.0891 15.8242 69.0891 14.6606C69.0891 13.2876 67.8297 13.2062 67.4818 13.2062C67.062 13.2062 66.2704 13.2644 65.4787 13.6483L65.4307 10.2391C66.6662 9.91336 67.5658 9.83191 68.6093 9.83191C71.584 9.83191 72.9274 11.9263 72.9274 13.9625C72.9274 15.9521 71.7759 17.1622 70.6724 17.6276V17.7789C71.7279 18.1163 73.1673 19.1519 73.1673 21.5604C73.1673 24.5274 71.0922 26.168 68.4534 26.168C67.038 26.168 66.1144 25.9586 64.9989 25.3536L65.0589 22.084C66.0785 22.5262 66.7741 22.5611 67.4818 22.5611C68.6453 22.5611 69.1251 21.7 69.1251 21.0601C69.1251 20.1758 68.5613 19.5824 67.3259 19.5824H65.8506V16.2081H67.4099Z" fill="#4F6AE8"/>
<path d="M74.8825 10.1112H84.8261V25.8656H81.1797V13.8927H78.5289V25.8656H74.8825V10.1112Z" fill="#4F6AE8"/>
<path d="M90.5595 13.5786H91.4231C92.2508 13.5786 92.7665 14.0789 92.7665 15.3821C92.7665 17.0925 91.8909 17.2088 91.4231 17.2088H90.5595V13.5786ZM86.9131 25.8656H90.5595V20.6646H91.783C95.3934 20.6646 96.5089 17.4183 96.5089 15.3472C96.5089 13.311 95.2374 10.0996 91.783 10.1112H86.9131V25.8656Z" fill="#4F6AE8"/>
<path d="M103.25 22.2474C101.966 22.2474 101.307 20.7464 101.307 17.9655C101.307 15.1847 101.966 13.6837 103.25 13.6837C104.533 13.6837 105.205 15.1847 105.205 17.9655C105.205 20.7464 104.533 22.2474 103.25 22.2474ZM103.25 26.0521C107.568 26.0521 109.031 22.0147 109.031 17.9655C109.031 13.928 107.568 9.87891 103.25 9.87891C98.9318 9.87891 97.4684 13.928 97.4684 17.9655C97.4804 22.0147 98.9318 26.0521 103.25 26.0521Z" fill="#4F6AE8"/>
<path d="M128.475 22.7124V19.1287H129.002C129.434 19.1287 130.586 19.1519 130.586 20.7693C130.586 22.4331 129.434 22.7124 129.002 22.7124H128.475ZM124.912 25.8656H129.266C130.202 25.8656 134.148 25.47 134.16 20.6994C134.16 16.6736 131.101 15.9755 129.134 15.9755H128.487V13.8927H133.308V10.1112H124.912V25.8656Z" fill="#4F6AE8"/>
<path d="M147.27 10.1112H150.845V15.7777H153.387V10.1112H156.962V25.8656H153.387V19.5592H150.845V25.8656H147.27V10.1112Z" fill="#4F6AE8"/>
<path d="M159.349 10.1112H162.923L162.911 15.7777H163.691L165.73 10.1112H169.616L166.833 17.5811L170 25.8656H165.802L163.763 19.5243H162.911L162.923 25.8656H159.349V10.1112Z" fill="#4F6AE8"/>
<path d="M46.0234 10.1112H53.4961V14.0323H49.7298V25.8656H46.0234V10.1112Z" fill="#4F6AE8"/>
<path d="M110.782 10.1112H113.877L116.612 13.8229L119.359 10.1112H122.453V25.8656H118.807V16.2547L116.612 19.0123L114.429 16.2547V25.8656H110.782V10.1112Z" fill="#4F6AE8"/>
<path d="M140.289 14.8937L140.973 19.6991H139.594L140.289 14.8937ZM134.868 25.8891H138.562L139.006 23.1664H141.549L141.993 25.8891H145.687L142.556 10.1348H137.974L134.868 25.8891Z" fill="#4F6AE8"/>
</g>
<defs>
<clipPath id="clip0_6_1571">
<rect width="170" height="36" fill="white"/>
</clipPath>
</defs>
</svg>
