<svg width="48" height="48" viewBox="0 0 48 48" fill="none" xmlns="http://www.w3.org/2000/svg">
<circle cx="24" cy="24" r="24" fill="#EDEEEF"/>
<g clip-path="url(#clip0_6_1869)">
<path d="M19.1473 24.5873C18.7387 25.3906 19.2027 25.7746 20.2613 26.4306C21.1613 26.9866 22.4047 27.19 23.2033 27.2713C22.876 27.586 24.376 26.1433 20.056 30.2986C19.14 31.1766 20.6147 32.5853 21.53 31.726L24.008 29.336C24.9567 30.2486 25.866 31.1233 26.486 31.7293C27.402 32.592 28.876 31.1953 27.97 30.302C27.902 30.2373 24.612 27.0813 24.8127 27.2746C25.6213 27.1933 26.846 26.978 27.7353 26.434L27.7347 26.4333C28.7933 25.774 29.2573 25.3906 28.8547 24.5873C28.6113 24.1313 27.9553 23.75 27.082 24.4093C27.082 24.4093 25.9027 25.3126 24.0007 25.3126C22.098 25.3126 20.9193 24.4093 20.9193 24.4093C20.0467 23.7466 19.388 24.1313 19.1473 24.5873Z" fill="#1E222E"/>
<path d="M23.9993 24.0947C26.318 24.0947 28.2113 22.2827 28.2113 20.052C28.2113 17.812 26.318 16 23.9993 16C21.68 16 19.7866 17.812 19.7866 20.052C19.7866 22.2827 21.68 24.0947 23.9993 24.0947ZM23.9993 18.0527C25.1386 18.0527 26.068 18.9467 26.068 20.052C26.068 21.148 25.1386 22.042 23.9993 22.042C22.86 22.042 21.9306 21.148 21.9306 20.052C21.93 18.946 22.8593 18.0527 23.9993 18.0527Z" fill="#1E222E"/>
</g>
<defs>
<clipPath id="clip0_6_1869">
<rect width="16" height="16" fill="white" transform="translate(16 16)"/>
</clipPath>
</defs>
</svg>
