<svg width="48" height="48" viewBox="0 0 48 48" fill="none" xmlns="http://www.w3.org/2000/svg">
<circle cx="24" cy="24" r="24" fill="#EDEEEF"/>
<mask id="mask0_6_1864" style="mask-type:luminance" maskUnits="userSpaceOnUse" x="15" y="17" width="17" height="14">
<path fill-rule="evenodd" clip-rule="evenodd" d="M15 17H31.8V31H15V17Z" fill="white"/>
</mask>
<g mask="url(#mask0_6_1864)">
<path fill-rule="evenodd" clip-rule="evenodd" d="M31.8 18.1248C31.7118 18.5163 31.6198 18.907 31.5359 19.2994C30.993 21.8368 30.4519 24.3746 29.9099 26.9123C29.6765 28.0052 29.4448 29.0985 29.206 30.1902C29.1749 30.3321 29.1196 30.473 29.0513 30.6015C28.8688 30.9449 28.5682 31.0744 28.1981 30.9585C28.0294 30.9057 27.8594 30.8284 27.7168 30.7251C26.5095 29.8501 25.3083 28.9665 24.1051 28.0856C24.0616 28.0538 24.0169 28.0233 23.965 27.9867C23.9251 28.0208 23.8873 28.05 23.8529 28.0828C23.2318 28.6747 22.6106 29.2666 21.9905 29.8597C21.8057 30.0363 21.5955 30.1426 21.3192 30.1267C21.3421 29.785 21.363 29.4543 21.3866 29.1239C21.4358 28.4319 21.4864 27.74 21.5366 27.048C21.5445 26.9391 21.5729 26.8275 21.5586 26.7217C21.5046 26.3227 21.7289 26.0915 22.0028 25.8473C24.23 23.8617 26.4465 21.864 28.6662 19.8699C28.6988 19.8407 28.741 19.8161 28.7602 19.7796C28.7953 19.7126 28.8167 19.6385 28.8438 19.5673C28.7689 19.5462 28.686 19.494 28.6206 19.5106C28.486 19.5448 28.3509 19.6002 28.2329 19.6739C25.3397 21.4809 22.4486 23.2913 19.5579 25.1022C19.4767 25.1531 19.407 25.1812 19.3027 25.1483C18.0763 24.7611 16.8472 24.3827 15.6209 23.9951C15.4725 23.9482 15.3248 23.8781 15.1979 23.7889C14.9593 23.6211 14.9305 23.3754 15.144 23.177C15.3004 23.0317 15.4897 22.9028 15.6873 22.8242C16.7205 22.4136 17.7608 22.0208 18.7991 21.6229C22.7435 20.1118 26.6878 18.6006 30.6333 17.0924C30.7589 17.0444 30.8957 17.0128 31.0295 17.0025C31.3845 16.9753 31.6477 17.1674 31.7562 17.5124C31.769 17.5531 31.7853 17.5927 31.8 17.6327V18.1248Z" fill="#1E222E"/>
</g>
</svg>
