<svg width="48" height="48" viewBox="0 0 48 48" fill="none" xmlns="http://www.w3.org/2000/svg">
<circle cx="24" cy="24" r="24" fill="#EDEEEF"/>
<g clip-path="url(#clip0_6_1874)">
<path d="M32.6931 18.2186C32.6145 17.473 32.2823 16.7771 31.7522 16.2471C31.222 15.7171 30.5259 15.3852 29.7804 15.3069C25.9391 14.895 22.0648 14.895 18.2235 15.3069C17.4773 15.3843 16.7802 15.7158 16.2492 16.2459C15.7182 16.776 15.3855 17.4724 15.3067 18.2186C14.8966 22.0616 14.8966 25.9374 15.3067 29.7805C15.3862 30.5258 15.7186 31.2214 16.2486 31.7514C16.7786 32.2813 17.4742 32.6138 18.2195 32.6932C22.0607 33.1051 25.935 33.1051 29.7763 32.6932C30.5223 32.6146 31.2188 32.2826 31.7496 31.7525C32.2805 31.2225 32.6135 30.5264 32.6931 29.7805C33.1032 25.9374 33.1032 22.0616 32.6931 18.2186ZM29.0859 27.2186C28.8241 27.2554 27.5437 27.2186 27.4772 27.2186C27.1454 27.2224 26.8255 27.0948 26.5874 26.8637C26.3174 26.6029 26.076 26.3165 25.8122 26.0455C25.7344 25.9623 25.6499 25.8857 25.5596 25.8164C25.3489 25.6548 25.1403 25.6916 25.041 25.9402C24.9635 26.2087 24.9095 26.4835 24.8795 26.7614C24.8621 27.012 24.7025 27.1705 24.4203 27.1869C24.2454 27.1971 24.0705 27.2002 23.8976 27.1961C23.2677 27.1917 22.6477 27.0382 22.0884 26.7481C21.4833 26.4113 20.956 25.9506 20.541 25.3961C19.8589 24.5247 19.3138 23.5674 18.827 22.5805C18.8014 22.5304 18.3023 21.4698 18.29 21.4187C18.245 21.252 18.29 21.0914 18.4281 21.0352C18.516 21.0014 20.1606 21.0352 20.1882 21.0352C20.3105 21.0345 20.4299 21.0726 20.5291 21.1441C20.6284 21.2156 20.7024 21.3168 20.7405 21.433C21.0445 22.2114 21.4607 22.9412 21.9759 23.5991C22.0481 23.6868 22.1325 23.7636 22.2265 23.8272C22.3605 23.9193 22.4873 23.8875 22.5425 23.7321C22.6081 23.5178 22.6465 23.2962 22.6571 23.0724C22.6663 22.6286 22.6571 22.3371 22.6325 21.8932C22.6162 21.6089 22.5159 21.3604 22.0966 21.2796C21.9678 21.2561 21.9565 21.1497 22.0393 21.0433C22.2122 20.8235 22.4484 20.7877 22.7133 20.7754C23.1081 20.7519 23.5029 20.7672 23.8976 20.7754H23.9835C24.1553 20.7739 24.3268 20.7911 24.4949 20.8265C24.5943 20.8471 24.6843 20.8991 24.7519 20.9748C24.8195 21.0505 24.861 21.1458 24.8703 21.2469C24.8906 21.3589 24.8991 21.4726 24.8958 21.5864C24.8856 22.0702 24.8621 22.5549 24.857 23.0387C24.8522 23.2306 24.8697 23.4225 24.9091 23.6104C24.9654 23.8691 25.1423 23.9325 25.3182 23.7464C25.5462 23.5067 25.7551 23.2495 25.9431 22.9773C26.2761 22.4801 26.5506 21.9461 26.7613 21.386C26.8758 21.0986 26.9658 21.0352 27.2726 21.0352H29.0174C29.1212 21.0333 29.2246 21.0471 29.3242 21.0761C29.3595 21.0853 29.3925 21.1018 29.4211 21.1244C29.4497 21.147 29.4733 21.1753 29.4905 21.2074C29.5077 21.2396 29.5181 21.275 29.521 21.3113C29.5239 21.3477 29.5192 21.3842 29.5073 21.4187C29.4214 21.8022 29.2148 22.1274 28.9959 22.4414C28.641 22.9436 28.2667 23.4335 27.9037 23.9295C27.8575 23.995 27.8155 24.0633 27.7779 24.134C27.6408 24.3805 27.651 24.5186 27.8495 24.7231C28.1665 25.0494 28.505 25.3541 28.8108 25.6896C29.0351 25.9337 29.2377 26.1968 29.4163 26.4761C29.6403 26.8238 29.5022 27.1552 29.0849 27.2145L29.0859 27.2186Z" fill="#1E222E"/>
</g>
<defs>
<clipPath id="clip0_6_1874">
<rect width="18" height="18" fill="white" transform="translate(15 15)"/>
</clipPath>
</defs>
</svg>
