<svg width="40" height="40" viewBox="0 0 40 40" fill="none" xmlns="http://www.w3.org/2000/svg">
<circle cx="20" cy="20" r="20" fill="#EDEEEF"/>
<g clip-path="url(#clip0_6_1733)">
<path d="M15.9563 20.4894C15.6157 21.1588 16.0024 21.4788 16.8846 22.0255C17.6346 22.4888 18.6707 22.6583 19.3363 22.7261C19.0635 22.9883 20.3135 21.7861 16.7135 25.2488C15.9501 25.9805 17.179 27.1544 17.9418 26.4383L20.0068 24.4466C20.7974 25.2072 21.5552 25.936 22.0718 26.441C22.8352 27.1599 24.0635 25.996 23.3085 25.2516C23.2518 25.1977 20.5101 22.5677 20.6774 22.7288C21.3513 22.6611 22.3718 22.4816 23.1129 22.0283L23.1124 22.0277C23.9946 21.4783 24.3813 21.1588 24.0457 20.4894C23.8429 20.1094 23.2963 19.7916 22.5685 20.3411C22.5685 20.3411 21.5857 21.0938 20.0007 21.0938C18.4152 21.0938 17.4329 20.3411 17.4329 20.3411C16.7057 19.7888 16.1568 20.1094 15.9563 20.4894Z" fill="#1E222E"/>
<path d="M19.9996 20.0786C21.9318 20.0786 23.5096 18.5686 23.5096 16.7097C23.5096 14.843 21.9318 13.333 19.9996 13.333C18.0668 13.333 16.489 14.843 16.489 16.7097C16.489 18.5686 18.0668 20.0786 19.9996 20.0786ZM19.9996 15.0436C20.949 15.0436 21.7235 15.7886 21.7235 16.7097C21.7235 17.623 20.949 18.368 19.9996 18.368C19.0501 18.368 18.2757 17.623 18.2757 16.7097C18.2751 15.788 19.0496 15.0436 19.9996 15.0436Z" fill="#1E222E"/>
</g>
<defs>
<clipPath id="clip0_6_1733">
<rect width="13.3333" height="13.3333" fill="white" transform="translate(13.3335 13.333)"/>
</clipPath>
</defs>
</svg>
