<svg width="40" height="40" viewBox="0 0 40 40" fill="none" xmlns="http://www.w3.org/2000/svg">
<circle cx="20" cy="20" r="20" fill="#EDEEEF"/>
<mask id="mask0_6_1728" style="mask-type:luminance" maskUnits="userSpaceOnUse" x="12" y="14" width="15" height="12">
<path fill-rule="evenodd" clip-rule="evenodd" d="M12.5 14.167H26.5V25.8337H12.5V14.167Z" fill="white"/>
</mask>
<g mask="url(#mask0_6_1728)">
<path fill-rule="evenodd" clip-rule="evenodd" d="M26.5 15.1044C26.4265 15.4306 26.3499 15.7561 26.2799 16.0831C25.8275 18.1977 25.3766 20.3125 24.9249 22.4272C24.7304 23.338 24.5373 24.2491 24.3383 25.1588C24.3124 25.277 24.2663 25.3945 24.2094 25.5016C24.0573 25.7878 23.8068 25.8957 23.4984 25.7991C23.3578 25.7551 23.2162 25.6906 23.0974 25.6045C22.0912 24.8754 21.0902 24.1391 20.0876 23.405C20.0513 23.3785 20.0141 23.3531 19.9708 23.3226C19.9376 23.351 19.9061 23.3754 19.8774 23.4027C19.3598 23.8959 18.8421 24.3892 18.3254 24.8834C18.1714 25.0306 17.9962 25.1192 17.766 25.1059C17.785 24.8212 17.8025 24.5456 17.8221 24.2702C17.8632 23.6936 17.9053 23.117 17.9472 22.5403C17.9538 22.4496 17.9774 22.3566 17.9655 22.2684C17.9205 21.9359 18.1074 21.7432 18.3357 21.5397C20.1917 19.885 22.0388 18.2203 23.8885 16.5586C23.9156 16.5342 23.9508 16.5137 23.9668 16.4833C23.9961 16.4275 24.0139 16.3657 24.0365 16.3064C23.9741 16.2889 23.905 16.2453 23.8505 16.2592C23.7383 16.2877 23.6258 16.3338 23.5274 16.3952C21.1164 17.9011 18.7072 19.4097 16.2982 20.9188C16.2306 20.9612 16.1725 20.9846 16.0856 20.9572C15.0636 20.6346 14.0393 20.3192 13.0174 19.9963C12.8937 19.9572 12.7707 19.8988 12.6649 19.8244C12.4661 19.6845 12.4421 19.4798 12.62 19.3145C12.7503 19.1934 12.9081 19.086 13.0728 19.0205C13.9338 18.6783 14.8007 18.351 15.6659 18.0194C18.9529 16.7601 22.2399 15.5008 25.5278 14.244C25.6324 14.204 25.7464 14.1777 25.8579 14.1691C26.1537 14.1464 26.3731 14.3065 26.4635 14.594C26.4742 14.6279 26.4878 14.6609 26.5 14.6943V15.1044Z" fill="#1E222E"/>
</g>
</svg>
