<svg width="40" height="40" viewBox="0 0 40 40" fill="none" xmlns="http://www.w3.org/2000/svg">
<circle cx="20" cy="20" r="20" fill="#EDEEEF"/>
<g clip-path="url(#clip0_6_1738)">
<path d="M27.2442 15.1819C27.1787 14.5606 26.9019 13.9806 26.4601 13.539C26.0183 13.0973 25.4382 12.8207 24.817 12.7554C21.6159 12.4122 18.3873 12.4122 15.1863 12.7554C14.5644 12.82 13.9835 13.0963 13.541 13.538C13.0985 13.9797 12.8212 14.5601 12.7556 15.1819C12.4138 18.3844 12.4138 21.6143 12.7556 24.8168C12.8218 25.4379 13.0988 26.0175 13.5405 26.4592C13.9821 26.9008 14.5618 27.1779 15.1829 27.2441C18.3839 27.5873 21.6125 27.5873 24.8135 27.2441C25.4352 27.1786 26.0157 26.9019 26.458 26.4602C26.9004 26.0185 27.1779 25.4384 27.2442 24.8168C27.586 21.6143 27.586 18.3844 27.2442 15.1819ZM24.2383 22.6819C24.0201 22.7125 22.953 22.6819 22.8976 22.6819C22.6211 22.685 22.3546 22.5787 22.1562 22.3861C21.9312 22.1688 21.73 21.9302 21.5101 21.7043C21.4453 21.635 21.3749 21.5711 21.2996 21.5134C21.1241 21.3787 20.9502 21.4094 20.8675 21.6165C20.8029 21.8403 20.7579 22.0693 20.7329 22.3009C20.7184 22.5097 20.5854 22.6418 20.3502 22.6554C20.2045 22.664 20.0587 22.6665 19.9147 22.6631C19.3897 22.6595 18.873 22.5316 18.407 22.2898C17.9027 22.0091 17.4633 21.6252 17.1175 21.1631C16.5491 20.437 16.0948 19.6393 15.6891 18.8168C15.6678 18.775 15.2519 17.8912 15.2417 17.8486C15.2042 17.7097 15.2417 17.5759 15.3567 17.529C15.43 17.5009 16.8005 17.529 16.8235 17.529C16.9254 17.5285 17.0249 17.5603 17.1076 17.6198C17.1903 17.6794 17.252 17.7637 17.2837 17.8606C17.5371 18.5092 17.8839 19.1174 18.3133 19.6657C18.3734 19.7387 18.4437 19.8027 18.5221 19.8557C18.6337 19.9324 18.7394 19.906 18.7854 19.7765C18.84 19.5979 18.8721 19.4133 18.8809 19.2268C18.8885 18.8569 18.8809 18.614 18.8604 18.2441C18.8468 18.0072 18.7633 17.8 18.4138 17.7327C18.3064 17.7131 18.2971 17.6245 18.3661 17.5358C18.5101 17.3526 18.707 17.3228 18.9277 17.3125C19.2567 17.2929 19.5857 17.3057 19.9147 17.3125H19.9863C20.1294 17.3113 20.2723 17.3256 20.4124 17.3552C20.4952 17.3723 20.5703 17.4156 20.6266 17.4787C20.6829 17.5418 20.7175 17.6213 20.7252 17.7054C20.7421 17.7988 20.7493 17.8936 20.7465 17.9884C20.738 18.3915 20.7184 18.7955 20.7141 19.1986C20.7101 19.3586 20.7247 19.5185 20.7576 19.675C20.8045 19.8907 20.9519 19.9435 21.0985 19.7884C21.2885 19.5886 21.4626 19.3743 21.6192 19.1475C21.8967 18.7331 22.1255 18.2881 22.301 17.8214C22.3965 17.5819 22.4715 17.529 22.7272 17.529H24.1812C24.2676 17.5275 24.3538 17.539 24.4368 17.5631C24.4662 17.5708 24.4937 17.5845 24.5176 17.6034C24.5414 17.6222 24.5611 17.6458 24.5754 17.6726C24.5897 17.6994 24.5984 17.7289 24.6008 17.7591C24.6032 17.7894 24.5993 17.8199 24.5894 17.8486C24.5178 18.1682 24.3456 18.4393 24.1633 18.7009C23.8675 19.1194 23.5556 19.5276 23.253 19.941C23.2146 19.9955 23.1796 20.0525 23.1482 20.1114C23.034 20.3168 23.0425 20.4319 23.2079 20.6023C23.4721 20.8742 23.7542 21.1282 24.009 21.4077C24.1959 21.6111 24.3647 21.8304 24.5135 22.0631C24.7002 22.3529 24.5851 22.629 24.2374 22.6785L24.2383 22.6819Z" fill="#1E222E"/>
</g>
<defs>
<clipPath id="clip0_6_1738">
<rect width="15" height="15" fill="white" transform="translate(12.5 12.5)"/>
</clipPath>
</defs>
</svg>
